<?xml version="1.0" encoding="UTF-8"?>
<svg id="Layer_1" data-name="Layer 1" xmlns="http://www.w3.org/2000/svg" viewBox="0 0 18 18">
  <defs>
    <style>
      .cls-1 {
        fill: #36383c;
      }
    </style>
  </defs>
  <path class="cls-1" d="m18,8.96v.35s-.03.08-.04.12c-.1.63-.43,1.11-.98,1.42-.13.08-.16.16-.14.29.08.62-.02,1.23-.24,1.81-.42,1.1-1.2,1.9-2.16,2.54-1.2.8-2.53,1.23-3.94,1.42-1.66.22-3.28.09-4.87-.43-1.27-.42-2.4-1.05-3.3-2.05-.85-.95-1.31-2.05-1.16-3.36.01-.1-.02-.16-.11-.2-.52-.28-.85-.72-.99-1.3-.02-.08-.04-.17-.06-.25,0-.12,0-.23,0-.35.01-.06.03-.11.04-.17.15-.97,1.12-1.7,2.1-1.6.45.05.84.23,1.19.54.06-.04.11-.07.16-.1.53-.36,1.1-.65,1.69-.88,1.06-.41,2.15-.63,3.28-.66.19,0,.25-.08.29-.26.3-1.46.61-2.92.91-4.38.07-.33.21-.42.54-.35.99.21,1.98.41,2.97.63.16.03.22,0,.31-.13.35-.53,1.01-.75,1.61-.54.58.2.98.79.94,1.39-.05.73-.61,1.29-1.33,1.33-.71.04-1.32-.47-1.43-1.2-.02-.11-.07-.15-.18-.18-.42-.08-.83-.18-1.25-.27-.51-.11-1.01-.21-1.55-.32-.3,1.42-.6,2.82-.9,4.24.07.01.12.02.17.03.37.04.75.06,1.12.11,1.4.2,2.7.66,3.87,1.47.09.06.15.06.24,0,1.13-.94,2.8-.38,3.15,1.05.02.09.05.18.07.27Zm-5.91,3c.79,0,1.42-.63,1.42-1.42,0-.78-.63-1.42-1.42-1.42-.78,0-1.42.64-1.41,1.42,0,.79.63,1.41,1.42,1.41Zm-6.19,0c.78,0,1.42-.63,1.42-1.42,0-.78-.64-1.42-1.42-1.42-.78,0-1.41.63-1.41,1.42,0,.79.63,1.41,1.42,1.41Zm3.38,3.36c.29-.04.87-.1,1.43-.22.59-.12,1.15-.37,1.6-.79.18-.17.19-.4.04-.56-.15-.16-.36-.16-.55,0-.27.24-.57.4-.91.51-1,.33-2.02.37-3.05.19-.6-.1-1.17-.27-1.64-.69-.19-.17-.41-.17-.56,0-.15.16-.14.41.06.57.2.16.41.32.63.43.83.43,1.73.54,2.94.56Z"/>
</svg>