<svg xmlns="http://www.w3.org/2000/svg" width="15" height="16" viewBox="0 0 10 12" fill="none">
<path d="M4.81267 0.773804C7.4227 0.773804 9.53842 2.85196 9.53842 5.41566C9.53842 7.97936 7.4227 10.0575 4.81267 10.0575C2.20263 10.0575 0.0869141 7.97936 0.0869141 5.41566C0.0869141 2.85196 2.20263 0.773804 4.81267 0.773804ZM4.81267 1.70218C3.80999 1.70218 2.84838 2.09342 2.13938 2.78983C1.43038 3.48624 1.03206 4.43078 1.03206 5.41566C1.03206 6.40054 1.43038 7.34508 2.13938 8.04149C2.84838 8.73791 3.80999 9.12915 4.81267 9.12915C5.81534 9.12915 6.77695 8.73791 7.48595 8.04149C8.19495 7.34508 8.59327 6.40054 8.59327 5.41566C8.59327 4.43078 8.19495 3.48624 7.48595 2.78983C6.77695 2.09342 5.81534 1.70218 4.81267 1.70218ZM4.81267 2.63055C4.92841 2.63056 5.04013 2.6723 5.12663 2.74785C5.21313 2.8234 5.26839 2.92751 5.28193 3.04042L5.28524 3.09473V5.22349L6.5645 6.48004C6.64926 6.56357 6.69846 6.67566 6.70213 6.79354C6.70579 6.91142 6.66364 7.02625 6.58423 7.11471C6.50482 7.20317 6.39411 7.25862 6.27459 7.26981C6.15506 7.28099 6.03569 7.24707 5.9407 7.17493L5.89628 7.1364L4.47855 5.74384C4.40511 5.67164 4.35794 5.57766 4.34434 5.47647L4.34009 5.41566V3.09473C4.34009 2.97162 4.38988 2.85356 4.4785 2.7665C4.56713 2.67945 4.68733 2.63055 4.81267 2.63055Z" fill="#AAA7A7"/>
</svg>