<?xml version="1.0" encoding="UTF-8"?>
<svg width="18px" height="18px" viewBox="0 0 18 18" version="1.1" xmlns="http://www.w3.org/2000/svg" xmlns:xlink="http://www.w3.org/1999/xlink">
    <title>Group 3</title>
    <defs>
        <polygon id="path-1" points="0 0 18 0 18 18 0 18"></polygon>
    </defs>
    <g id="Page-1" stroke="none" stroke-width="1" fill="none" fill-rule="evenodd">
        <g id="Share-Mobile-top-Copy-2" transform="translate(-161.000000, -1098.000000)">
            <g id="Group-2" transform="translate(18.000000, 1089.000000)">
                <g id="Group-3" transform="translate(143.000000, 9.000000)">
                    <mask id="mask-2" fill="white">
                        <use xlink:href="#path-1"></use>
                    </mask>
                    <g id="Clip-2"></g>
                    <path d="M14.2382859,12.7089573 C14.0213721,13.322081 13.1596935,13.8307909 12.472038,13.97915 C12.0019996,14.0793451 11.3878206,14.1591496 9.31993255,13.302042 C6.67583423,12.206224 4.97251602,9.51853444 4.83962555,9.34415981 C4.71271165,9.16837894 3.77087687,7.92103784 3.77087687,6.62975152 C3.77087687,5.33846521 4.42689169,4.70916967 4.69126636,4.43917025 C4.90853172,4.21768634 5.26712503,4.11643656 5.61165586,4.11643656 C5.72274947,4.11643656 5.8225931,4.12206154 5.91294455,4.12663185 C6.17731922,4.13788182 6.31020968,4.15335054 6.48458447,4.5710059 C6.70149827,5.09412979 7.23024762,6.38541611 7.29317723,6.51830645 C7.35610684,6.65119679 7.42114582,6.83084485 7.33114593,7.00521947 C7.24677103,7.18521909 7.17259144,7.26537517 7.04005254,7.41830453 C6.90751364,7.5712339 6.78130286,7.68830396 6.64841239,7.8524833 C6.52677192,7.99521737 6.38966271,8.14849829 6.54294377,8.41287273 C6.69587327,8.67162218 7.22462262,9.53435472 8.0033326,10.2272829 C9.00774543,11.121656 9.82231474,11.4074757 10.112705,11.5280614 C10.3299704,11.6180612 10.58872,11.596616 10.7472745,11.4278663 C10.9487196,11.2106012 11.197274,10.8506019 11.4503987,10.4962277 C11.6303985,10.2420485 11.8575076,10.210408 12.0962182,10.3004078 C12.3391476,10.3847826 13.6248101,11.0204062 13.8891847,11.1522419 C14.1535594,11.2840776 14.3279342,11.3480618 14.3922701,11.4591553 C14.4566059,11.5702488 14.4562544,12.0937243 14.2382859,12.7089573 M9.00212044,0 L8.99790169,0 C4.03525154,0 1.10239112e-05,4.03663204 1.10239112e-05,8.99998086 C-0.00296614755,10.895637 0.597150302,12.743094 1.71353565,14.2751649 L0.59170109,17.6185172 L4.05107184,16.5128555 C5.51856222,17.4861894 7.2411812,18.003618 9.00212044,17.999981 C13.9647706,17.999981 18,13.962275 18,8.99998086 C18,4.03768672 13.9647706,0 9.00212044,0" id="Fill-1" fill="#36383C" mask="url(#mask-2)"></path>
                </g>
            </g>
        </g>
    </g>
</svg>