<?xml version="1.0" encoding="UTF-8"?>
<svg width="86px" height="13px" viewBox="0 0 86 13" version="1.1" xmlns="http://www.w3.org/2000/svg" xmlns:xlink="http://www.w3.org/1999/xlink">
    <title>Group 5</title>
    <g id="Page-1" stroke="none" stroke-width="1" fill="none" fill-rule="evenodd">
        <g id="Share-Mobile-top-Copy-2" transform="translate(-255.000000, -1053.000000)" fill-rule="nonzero">
            <g id="Group-5" transform="translate(255.000000, 1053.000000)">
                <g id="newsGuard_logo-(1)" fill="#000000">
                    <path d="M5,13 L4.659271,12.8334434 C0,10.5523048 0,8.29949808 0,4.88852199 L0,0 L10,0 L10,4.88852199 C10,8.29949808 10,10.5548805 5.33984856,12.8334434 L5,13 Z M1.51787286,1.48012152 L1.51787286,4.88938053 C1.51787286,8.05138027 1.51787286,9.54695549 5,11.3395853 C8.48564888,9.54695549 8.48476845,8.05138027 8.48212714,4.89367323 L8.48212714,1.48012152 L1.51787286,1.48012152 Z" id="Shape"></path>
                    <polygon id="Path" points="12 1 14.4049857 1 16.9755995 5.23504868 18.047111 7.35215577 17.8417661 4.98052851 17.8417661 1 20 1 20 10 17.9381008 10 14.8731383 5.20751043 13.8590895 3.26648122 14.1303475 5.39777469 14.1303475 9.99916551 12 9.99916551"></polygon>
                    <path d="M21,6.53871231 C21,4.25672372 22.4633317,3 24.6296623,3 C26.9388861,3 28,4.35207824 28,6.24694377 C28,6.31377343 28,6.88427058 27.9858871,6.92420538 L23.3109879,6.92420538 C23.4106603,8.01140994 24.0166331,8.48899756 24.9030998,8.48899756 C25.562878,8.48899756 26.1653226,8.22249389 26.4810988,7.73186634 L27.7733115,8.6601467 C27.1417591,9.46943765 26.1520917,10 24.6596522,10 C22.4642137,10 21,8.83292584 21,6.53871231 Z M23.3383317,5.83537082 L25.733997,5.83537082 L25.733997,5.75387123 C25.733997,4.90546047 25.4473286,4.37489813 24.6005544,4.37489813 C23.8552167,4.37897311 23.3815524,4.77587612 23.3383317,5.83537082 Z" id="Shape"></path>
                    <polygon id="Path" points="29 3 31.3606799 3 31.9164856 6.51457262 32.1529804 8.42701445 32.2494567 8.42701445 32.5832816 6.51457262 33.4029028 3 35.860059 3 36.5686898 6.51457262 36.8743403 8.45358805 36.9853306 8.45358805 37.2218255 6.51457262 37.8331264 3 40 3 38.1387768 10 35.4715927 10 34.7766222 6.66629929 34.4991462 4.57555719 34.4018162 4.57555719 34.1098261 6.66629929 33.3183794 10 30.8193884 10"></polygon>
                    <path d="M40,8.71711839 L41.1796842,7.63463569 C41.5407597,8.11510032 42.0546308,8.5561422 42.8604353,8.5561422 C43.3316261,8.5561422 43.6653863,8.34342368 43.6653863,8.0083304 C43.6653863,7.51554617 42.8604353,7.2864015 41.8600085,6.94063123 C41.0132309,6.65974422 40.2381562,6.09879151 40.2381562,5.03109234 C40.2381562,4.0019946 41.262484,3 43.154076,3 C44.6256936,3 45.3896714,3.48046463 45.9163466,4.10876452 L44.7212975,5.20356682 C44.5275288,4.88325707 44.0827998,4.40197114 43.3615023,4.40197114 C42.8339735,4.40197114 42.5283824,4.62947319 42.5283824,4.93664203 C42.5283824,5.44420979 43.2232181,5.63146779 44.1664533,5.93863663 C45.0968843,6.24498416 46,6.68602605 46,7.93030623 C46,9.06535258 44.9167734,10 43.0004268,10 C41.73965,10 40.5975245,9.54499589 40,8.71711839 Z" id="Path"></path>
                    <path d="M47,6.08234535 C47,3.01281885 48.7513514,1 51.788417,1 C54.0471042,1 55.2233591,1.9845987 55.8305985,3.47574048 L53.3608108,4.16656199 C53.173166,3.31282768 52.6362934,2.8775033 51.7467181,2.8775033 C50.4740347,2.8775033 49.5001931,3.87634574 49.5001931,5.94702979 L49.5001931,6.08234535 C49.5001931,8.16727314 50.3046332,9.16789605 51.7753861,9.16789605 C53.0315637,9.16789605 53.7395753,8.31149104 53.8525097,7.34113608 L51.9022201,7.34113608 L51.9022201,5.42713319 L56,5.42713319 L56,10.8139385 L54.2043436,10.8139385 L54.0219112,8.21890671 C53.7526062,9.89877808 52.6797297,11 51.0265444,11 C48.4690154,11.0026681 47,8.93109383 47,6.08234535 Z" id="Path"></path>
                    <path d="M58,7.29295234 L58,3 L60.0717131,3 L60.0717131,6.93660704 C60.0717131,7.96278065 60.2669323,8.24936967 60.8111554,8.24936967 C61.4207171,8.24936967 61.8605578,7.49297635 61.8605578,6.5407612 L61.8605578,3 L64,3 L64,9.86300876 L62.0310757,9.86300876 L62.0310757,9.01584824 L62.0836653,7.99051507 L61.9697211,7.99051507 C61.8653386,8.79649418 61.3075697,10 59.9864542,10 C58.6653386,10 58,9.23352143 58,7.29295234 Z" id="Path"></path>
                    <path d="M69.3940147,8.53398853 C69.0541413,9.58722359 68.1066683,10 67.1731032,10 C65.7875326,10 65,9.25389025 65,8.17526618 C65,6.8959869 66.1447908,6.38902539 67.6859555,6.0958231 C68.7038371,5.8968059 69.2827518,5.79033579 69.3827145,5.66994267 L69.3827145,5.5036855 C69.3827145,4.94430794 69.1002111,4.54463554 68.2796473,4.54463554 C67.5926711,4.5294229 66.967476,4.91658474 66.7097976,5.51678952 L65.0582392,4.65110565 C65.5797839,3.66830467 66.8679995,3 68.5073886,3 C70.6570222,3 71.5905874,3.93202293 71.5905874,5.55773956 L71.5905874,7.6977887 C71.5905874,9.08353808 71.7748665,9.6969697 72,9.85667486 L69.7469266,9.85667486 C69.5869862,9.72317772 69.4357382,9.38984439 69.3940147,8.53398853 Z M69.3801068,7.50696151 L69.3801068,6.36036036 C69.2062585,6.51924652 68.9281013,6.64045864 68.5021731,6.76986077 C67.7259406,6.995905 67.2304731,7.3022113 67.2304731,7.86240786 C67.2304731,8.36773137 67.5972929,8.62244062 68.037129,8.62244062 C68.6160437,8.63144963 69.2940519,8.31122031 69.3801068,7.51023751 L69.3801068,7.50696151 Z" id="Shape"></path>
                    <path d="M73,3.12534551 L75.1329114,3.12534551 L75.1329114,4.26186756 L75.0009042,6.27328446 L75.1329114,6.27328446 C75.3137432,4.45283019 76,3 77.8101266,3 L78,3 L78,5.52373513 L77.4575045,5.52373513 C75.8842676,5.52373513 75.443038,6.11260666 75.443038,7.64451388 L75.443038,10 L73.0018083,10 L73,3.12534551 Z" id="Path"></path>
                    <path d="M79,6.44981258 C79,3.97001249 80.2734991,2.85880883 81.81698,2.85880883 C83.0446331,2.85880883 83.6525167,3.63098709 83.8469375,4.33569346 L83.9428745,4.33569346 L83.8044876,2.88629738 L83.8044876,0 L86,0 L86,9.87755102 L83.9148575,9.87755102 L83.9708914,8.21157851 L83.9989084,7.939192 L83.9428745,8.02249063 C83.7493026,9.14702207 82.9240752,10 81.6369921,10 C80.1172832,9.99916701 79,8.79466889 79,6.44981258 Z M83.8775015,6.54394002 L83.8775015,6.01582674 C83.8775015,5.1211995 83.5735597,4.30820491 82.6337174,4.30820491 C81.9018799,4.30820491 81.3602183,4.93127863 81.3602183,6.31403582 C81.3602183,7.68179925 81.73208,8.50812162 82.5742874,8.50812162 C83.4326258,8.50812162 83.8775015,7.56018326 83.8775015,6.54394002 Z" id="Shape"></path>
                </g>
                <g id="newsguard-check">
                    <polygon id="Path" fill="#FFFFFF" points="1 2 9 2 9 8 1 8"></polygon>
                    <path d="M10,0 L0,0 L0,4.889 C0,8.3 0,10.5625 4.651,12.8335 L4.992,13 L5.3305,12.8335 C9.906,10.5625 10,8.2995 10,4.889 L10,0 Z M4.665,8.1715 C4.57408873,8.26934006 4.44655724,8.32492776 4.313,8.32492776 C4.17944276,8.32492776 4.05191127,8.26934006 3.961,8.1715 L1.496,5.7625 C1.31282423,5.56955051 1.31282423,5.26694949 1.496,5.074 L2.2185,4.3835 C2.30376395,4.28468076 2.42849938,4.22881541 2.559,4.231 C2.6955,4.231 2.826,4.286 2.9205,4.3835 L4.3145,5.7565 L7.5305,2.594 C7.6245,2.495 7.755,2.438 7.892,2.4375 C8.02257228,2.4349646 8.14745007,2.49089371 8.2325,2.59 L8.955,3.2785 C9.1375,3.473 9.1375,3.7745 8.955,3.969 L4.665,8.1715 L4.665,8.1715 Z" id="Shape" fill="#42B149"></path>
                </g>
            </g>
        </g>
    </g>
</svg>