<svg width="132" height="24" viewBox="0 0 132 24" fill="none" xmlns="http://www.w3.org/2000/svg">
    <path fill-rule="evenodd" clip-rule="evenodd" d="M10.959 9.902 6.137 5.558c-.632-.555-.215-1.47-.215-1.47L5.822 4 4.814 5.26c-.566.698-.467 1.746.21 2.339l4.82 4.344c.633.555.217 1.47.217 1.47l.099.088 1.008-1.26c.567-.698.467-1.746-.21-2.339zM8.736 12.685 3.915 8.341c-.632-.555-.216-1.47-.216-1.47l-.1-.088-1.008 1.261c-.566.697-.467 1.745.21 2.338l4.82 4.344c.633.555.217 1.47.217 1.47l.099.088 1.008-1.26c.567-.698.467-1.746-.209-2.338zM6.513 15.469l-4.821-4.345c-.632-.555-.216-1.47-.216-1.47l-.1-.087-1.007 1.26c-.567.697-.467 1.745.209 2.338l4.821 4.345c.632.555.216 1.47.216 1.47l.099.088 1.008-1.261c.567-.697.467-1.745-.21-2.338h.001z" fill="#FF1204"/>
    <path fill-rule="evenodd" clip-rule="evenodd" d="M16.114 17.666h7.331v-2.232h-4.481v-3.057h3.383V10.3h-3.383V7.62h4.24V5.39h-7.09v12.277zm7.48 0h2.902l1.974-4.499 1.992 4.499h3.21l-3.107-6.405 2.747-5.872h-2.884l-1.7 3.984-1.734-3.984H23.8l2.902 5.958-3.108 6.32v-.001zm10.37 0h2.851V13.08h1.15c2.679 0 4.173-1.15 4.173-3.537V9.03c0-2.404-1.374-3.64-4.258-3.64h-3.915v12.277zm2.851-6.576V7.553h.962c1.064 0 1.596.395 1.596 1.51v.464c0 1.065-.532 1.563-1.596 1.563h-.962zm5.866 6.576h2.85V12.84h.858l2.164 4.825h3.004l-2.472-5.34c1.133-.43 1.94-1.27 1.94-2.97v-.447c0-2.37-1.494-3.52-4.327-3.52H42.68v12.277zm2.85-6.731V7.57h1.065c1.081 0 1.648.394 1.648 1.425v.412c0 1.082-.55 1.528-1.648 1.528H45.53zm6.436 6.73h7.331v-2.231h-4.481v-3.057h3.382V10.3h-3.382V7.62h4.24V5.39h-7.09v12.277zm12.03.19c2.644 0 4.19-1.477 4.19-3.76 0-2.542-1.529-3.332-3.795-3.967-1.443-.43-1.837-.772-1.837-1.614 0-.738.446-1.184 1.27-1.184.842 0 1.356.394 1.425 1.46h2.679c-.12-2.44-1.597-3.572-4.087-3.572-2.49 0-4.018 1.408-4.018 3.502 0 2.25 1.15 3.177 3.606 3.915 1.408.412 1.975.721 1.975 1.735 0 .892-.515 1.373-1.408 1.373-1.202 0-1.614-.584-1.666-1.769h-2.747c.069 2.593 1.597 3.88 4.413 3.88zm8.853 0c2.645 0 4.19-1.477 4.19-3.76 0-2.542-1.528-3.332-3.795-3.967-1.442-.43-1.837-.772-1.837-1.614 0-.738.447-1.184 1.27-1.184.842 0 1.357.394 1.426 1.46h2.678c-.12-2.44-1.596-3.572-4.086-3.572s-4.018 1.408-4.018 3.502c0 2.25 1.15 3.177 3.606 3.915 1.408.412 1.974.721 1.974 1.735 0 .892-.515 1.373-1.407 1.373-1.202 0-1.614-.584-1.666-1.769h-2.747c.068 2.593 1.597 3.88 4.413 3.88z" fill="#000"/>
    <path d="M81.428 14.447c0 .87.23 1.57.689 2.1.459.526 1.09.789 1.892.789.792 0 1.42-.196 1.885-.59.47-.392.705-.926.705-1.601 0-.537-.136-.991-.407-1.362-.265-.37-.843-.808-1.734-1.311-.908-.526-1.539-1.066-1.893-1.619a3.446 3.446 0 0 1-.523-1.876c0-.98.37-1.77 1.112-2.374.742-.609 1.746-.913 3.014-.913.984 0 1.77.171 2.357.515.587.343.88.783.88 1.32 0 .785-.501 1.178-1.503 1.178 0-.664-.157-1.19-.473-1.577-.315-.387-.78-.581-1.394-.581-.675 0-1.229.194-1.66.581-.432.387-.648.908-.648 1.56 0 .482.114.9.34 1.254.233.349.82.797 1.76 1.345.891.52 1.533 1.037 1.926 1.552.398.515.598 1.101.598 1.76 0 1.123-.393 2-1.18 2.631-.785.625-1.878.938-3.278.938-1.156 0-2.075-.227-2.756-.68-.68-.46-1.02-1.041-1.02-1.744 0-.393.121-.705.364-.938.25-.238.565-.357.947-.357zm11.729-3.42c.94-1.527 1.99-2.29 3.146-2.29 1.212 0 1.818.627 1.818 1.884 0 .36-.103.982-.307 1.867l-.44 2.01c-.15.68-.225 1.275-.225 1.784 0 .542.2.813.598.813.327 0 .689-.13 1.088-.39l.307.498c-.742.642-1.434.963-2.076.963-.47 0-.846-.152-1.129-.457-.276-.304-.415-.716-.415-1.236s.108-1.287.324-2.3l.39-1.76c.166-.686.25-1.214.25-1.585 0-.67-.26-1.004-.78-1.004-.632 0-1.282.431-1.952 1.295-.664.857-1.084 1.701-1.261 2.531L91.58 18h-1.586l2.208-10.509c.105-.498.158-.797.158-.896 0-.532-.399-.797-1.195-.797h-.133l.15-.714h3.129l-.665 3.121c-.199.93-.423 1.87-.672 2.822h.183zm12.077-2.307c1.002 0 1.791.301 2.366.905.576.603.863 1.474.863 2.614 0 1.511-.462 2.878-1.386 4.1-.924 1.218-2.139 1.827-3.644 1.827-1.024 0-1.823-.31-2.399-.93-.575-.62-.863-1.48-.863-2.581a6.58 6.58 0 0 1 1.394-4.11c.936-1.217 2.159-1.825 3.669-1.825zm-1.61 8.616c.935 0 1.68-.553 2.233-1.66.559-1.113.838-2.344.838-3.694 0-1.577-.553-2.366-1.66-2.366-.924 0-1.671.556-2.241 1.669-.57 1.112-.855 2.349-.855 3.71 0 1.56.562 2.34 1.685 2.34zm12.21-6.15c0-.897-.226-1.346-.68-1.346-.526 0-1.085.518-1.677 1.553-.587 1.034-1.021 2.205-1.303 3.51L111.535 18h-1.586l1.428-6.832c.066-.315.1-.57.1-.763 0-.537-.451-.805-1.353-.805h-.142l.158-.714h3.005l-.357 2.449h.174c.454-1.013.902-1.702 1.345-2.067a2.354 2.354 0 0 1 1.544-.548c.93 0 1.395.39 1.395 1.17 0 .863-.471 1.295-1.412 1.295zm6.434 5.536.29.63c-.764.543-1.527.814-2.291.814-1.234 0-1.851-.661-1.851-1.984 0-.426.055-.902.166-1.428l1.038-4.897h-1.295l.157-.68c1.107 0 1.973-.795 2.599-2.383h.78l-.44 2.092h2.058l-.207.97h-2.059l-1.029 4.849c-.138.653-.207 1.14-.207 1.46 0 .62.301.93.904.93.46 0 .922-.124 1.387-.373zm7.296-5.321c0-.57-.136-1.027-.407-1.37-.265-.343-.639-.514-1.12-.514-.509 0-.913.138-1.212.415-.294.27-.44.62-.44 1.045 0 .377.141.698.423.963.282.266.72.529 1.312.789 1.361.609 2.042 1.489 2.042 2.64 0 .835-.321 1.51-.963 2.025-.642.515-1.494.772-2.557.772-.858 0-1.541-.172-2.05-.515-.504-.348-.756-.816-.756-1.402 0-.366.1-.642.299-.83a1.08 1.08 0 0 1 .772-.291c0 .703.169 1.25.507 1.643.343.388.821.581 1.436.581 1.223 0 1.834-.525 1.834-1.577 0-.404-.13-.744-.39-1.02-.26-.283-.703-.568-1.328-.856-.814-.387-1.362-.785-1.644-1.195a2.534 2.534 0 0 1-.415-1.436c0-.742.302-1.347.905-1.818.609-.476 1.4-.714 2.374-.714.836 0 1.486.155 1.951.465.47.31.705.692.705 1.146 0 .703-.426 1.054-1.278 1.054z" fill="#000"/>
</svg>
